<?xml version="1.0" encoding="UTF-8"?>
<svg width="39px" height="43px" viewBox="0 0 39 43" version="1.1" xmlns="http://www.w3.org/2000/svg" xmlns:xlink="http://www.w3.org/1999/xlink">
    <title>logo</title>
    <defs>
        <linearGradient x1="0.0082041872%" y1="50.0003255%" x2="100.00418%" y2="50.0003255%" id="linearGradient-1">
            <stop stop-color="#FFD25A" offset="0%"></stop>
            <stop stop-color="#E05264" offset="100%"></stop>
        </linearGradient>
        <linearGradient x1="0.000867998471%" y1="50.0006497%" x2="100.000862%" y2="50.0006497%" id="linearGradient-2">
            <stop stop-color="#D066AE" offset="0%"></stop>
            <stop stop-color="#4F036C" offset="100%"></stop>
        </linearGradient>
    </defs>
    <g id="Page-1" stroke="none" stroke-width="1" fill="none" fill-rule="evenodd">
        <g id="logo" transform="translate(0.544168, 0.271749)" fill-rule="nonzero">
            <path d="M30.4458322,12.0672515 C30.2828322,11.9732515 30.1288322,11.8952515 29.9668322,11.8182515 L29.9738322,11.8182515 C30.1278322,11.8952515 30.2908322,11.9732515 30.4458322,12.0672515 L30.4458322,12.0672515 Z M17.2328322,14.8492515 C16.6668322,15.6132515 16.2038322,16.4622515 15.8438322,17.3982515 C15.3288322,18.7122515 15.0798322,20.1112515 15.0798322,21.6052515 C15.0798322,23.0992515 15.3288322,24.4972515 15.8438322,25.7932515 C16.3498322,27.0992515 17.0618322,28.2412515 17.9718322,29.2102515 C18.8798322,30.1902515 19.9708322,30.9612515 21.2218322,31.5282515 C22.4838322,32.0942515 23.8558322,32.3772515 25.3478322,32.3772515 C26.5488322,32.3772515 27.6998322,32.1812515 28.7888322,31.8122515 C29.8868322,31.4342515 30.8728322,30.9192515 31.7658322,30.2412515 C32.0918322,30.0452515 32.3668322,29.9592515 32.5898322,30.0022515 C32.8038322,30.0362515 33.0258322,30.1982515 33.2398322,30.4902515 L37.9168322,37.2202515 C38.1138322,37.6322515 38.1398322,37.9672515 37.9938322,38.2412515 C37.8478322,38.5152515 37.6258322,38.7472515 37.3158322,38.9282515 C35.5998322,40.0782515 33.7628322,40.9712515 31.7818322,41.5982515 C29.8088322,42.2242515 27.7238322,42.5422515 25.5358322,42.5422515 C23.6068322,42.5422515 21.7618322,42.3012515 19.9858322,41.8042515 C18.2098322,41.3152515 16.5458322,40.6112515 14.9928322,39.7002515 C13.4398322,38.7912515 12.0328322,37.7002515 10.7628322,36.4302515 C9.49283219,35.1682515 8.40283219,33.7592515 7.48483219,32.2222515 C6.57583219,30.6782515 5.86383219,29.0122515 5.37483219,27.2362515 C5.30583219,26.9792515 5.23683219,26.7122515 5.17683219,26.4552515 C7.45283219,20.7982515 11.6738322,17.1492515 17.2328322,14.8492515 L17.2328322,14.8492515 Z" id="Shape" fill="url(#linearGradient-1)"></path>
            <path d="M0.125832194,34.7462515 C-0.603167806,24.0342515 1.80783219,13.5182515 8.07883219,6.9162515 C13.9298322,0.761251495 23.6418322,-1.5307485 31.6968322,1.0362515 C33.7568322,1.6892515 35.6798322,2.6162515 37.4628322,3.8182515 C37.7888322,4.0072515 38.0208322,4.2472515 38.1748322,4.5302515 C38.3298322,4.8142515 38.2958322,5.1652515 38.0888322,5.5952515 L33.2168322,12.6172515 C32.9928322,12.9172515 32.7618322,13.0892515 32.5378322,13.1232515 C32.3058322,13.1662515 32.0318322,13.0722515 31.6798322,12.8662515 C17.5078322,4.8482515 2.81183219,19.3642515 0.228832194,34.1892515 C0.186832194,34.3872515 0.152832194,34.5752515 0.125832194,34.7462515 L0.125832194,34.7462515 Z" id="Path" fill="url(#linearGradient-2)"></path>
        </g>
    </g>
</svg>